<?xml version="1.0" standalone="no"?>
<!DOCTYPE svg PUBLIC "-//W3C//DTD SVG 20010904//EN"
 "http://www.w3.org/TR/2001/REC-SVG-20010904/DTD/svg10.dtd">
<svg version="1.0" xmlns="http://www.w3.org/2000/svg"
 width="750.000000pt" height="203.000000pt" viewBox="0 0 750.000000 203.000000"
 preserveAspectRatio="xMidYMid meet">
<metadata>
Created by potrace 1.16, written by Peter Selinger 2001-2019
</metadata>
<g transform="translate(0.000000,203.000000) scale(0.100000,-0.100000)"
fill="#000000" stroke="none">
<path d="M2250 1929 c-142 -7 -239 -19 -271 -33 -9 -4 -21 -18 -28 -32 -6 -13
-22 -29 -35 -34 -28 -10 -51 -49 -61 -102 -8 -40 -35 -43 -35 -4 0 32 -56 55
-159 67 -98 12 -294 15 -331 5 -43 -10 -50 -31 -50 -153 0 -71 -4 -113 -10
-113 -19 0 -74 27 -96 46 -27 26 -61 44 -79 44 -8 0 -15 5 -15 11 0 11 -195 7
-425 -10 -77 -5 -171 -12 -210 -14 -94 -6 -122 -19 -143 -64 -14 -33 -17 -97
-20 -522 -2 -266 -1 -504 3 -528 8 -54 37 -75 109 -81 120 -10 806 -12 806 -2
0 5 15 10 34 10 35 0 86 39 86 66 0 8 5 14 10 14 6 0 10 -15 10 -32 0 -57 19
-106 43 -114 31 -10 79 -7 113 7 16 7 56 16 89 20 173 21 195 35 195 123 0 91
5 93 66 34 30 -29 82 -68 115 -85 l61 -33 324 0 c241 0 330 3 346 13 12 6 48
37 80 68 69 67 81 73 96 49 12 -20 167 -110 275 -161 58 -27 72 -30 93 -20 14
6 32 11 40 11 29 0 74 41 94 84 10 24 26 49 35 56 8 7 15 17 15 22 0 5 9 18
20 30 11 12 20 28 20 35 0 7 3 13 6 13 3 0 47 -37 97 -81 104 -93 182 -148
267 -190 48 -23 74 -29 137 -31 69 -3 82 0 113 22 19 13 42 32 51 42 9 10 21
18 26 18 6 0 16 7 23 15 17 21 30 9 31 -28 1 -70 4 -71 125 -73 60 0 116 -4
124 -7 8 -3 53 -8 100 -11 47 -2 164 -10 261 -16 170 -12 178 -11 223 8 43 19
46 24 46 58 0 33 2 35 17 23 12 -11 54 -14 169 -14 l154 0 25 27 25 27 0 306
c0 237 3 305 13 306 62 4 243 -4 245 -12 2 -5 44 -9 93 -9 49 0 89 -3 89 -7 0
-5 -4 -24 -10 -43 -18 -68 -31 -246 -20 -276 15 -40 142 -167 215 -214 l60
-39 461 -1 c333 0 469 3 487 11 15 7 34 28 43 48 16 32 18 77 19 414 0 208 -3
381 -7 383 -5 3 -8 20 -8 39 0 19 -4 37 -10 40 -5 3 -10 16 -10 29 0 28 -29
56 -58 56 -12 0 -22 5 -22 10 0 6 -18 10 -40 10 -22 0 -40 5 -40 10 0 6 -57
10 -150 10 -82 0 -150 4 -150 8 0 41 -281 44 -547 6 -52 -8 -80 -45 -110 -144
-27 -92 -43 -114 -43 -60 0 17 -4 30 -10 30 -5 0 -10 7 -10 15 0 21 -41 65
-60 65 -9 0 -20 3 -24 8 -10 9 -398 3 -434 -7 -15 -5 -42 -6 -60 -3 -19 2 -67
-1 -107 -8 -58 -10 -82 -10 -122 0 -37 10 -58 10 -81 2 -18 -6 -31 -8 -30 -4
1 4 -1 14 -5 22 -3 8 -11 69 -17 134 -7 66 -16 129 -20 141 -16 42 -62 39
-385 -17 -66 -11 -145 -22 -175 -23 -57 -3 -118 -24 -137 -47 -6 -7 -15 -61
-18 -119 -10 -136 -10 -135 126 -138 57 -1 108 -6 116 -12 17 -14 18 -120 1
-137 -7 -7 -18 -12 -25 -12 -8 0 -50 -14 -93 -31 -73 -28 -83 -35 -108 -77
-24 -42 -27 -56 -26 -127 2 -105 14 -115 129 -115 61 0 86 -4 95 -15 10 -12
10 -18 0 -30 -18 -21 -209 -21 -253 0 -18 8 -54 21 -82 29 -66 18 -173 64
-207 87 -14 11 -42 19 -61 19 -28 0 -40 7 -61 35 -14 19 -39 40 -54 47 -15 7
-27 18 -27 25 0 17 134 132 185 158 25 13 65 43 90 67 25 23 83 75 127 113 79
67 82 71 80 110 -2 36 -6 42 -42 60 -22 12 -60 27 -85 34 -25 7 -53 17 -62 22
-10 5 -29 9 -43 9 -14 0 -25 5 -25 10 0 6 -18 10 -39 10 -22 0 -41 4 -43 10
-1 5 -28 12 -58 15 -30 3 -70 8 -89 12 -32 5 -38 1 -195 -162 l-162 -167 -28
23 c-15 13 -43 38 -61 56 -39 38 -86 63 -116 63 -43 0 -272 -72 -318 -101 -32
-19 -33 -23 -28 -63 14 -97 98 -252 178 -328 16 -15 29 -35 29 -44 0 -19 -77
-124 -91 -124 -18 0 -37 48 -49 125 -11 70 -25 109 -60 165 -33 53 -75 199
-86 294 -2 22 -12 46 -25 57 -31 26 -129 33 -286 19 -76 -7 -203 -14 -283 -16
-181 -4 -281 -13 -298 -27 -7 -6 -22 -27 -32 -46 l-19 -36 -1 128 c0 97 3 127
13 127 7 0 17 -15 22 -32 l10 -33 130 4 c72 2 141 8 155 13 60 24 164 28 290
14 69 -8 172 -19 230 -25 135 -13 138 -11 121 91 -18 110 -68 182 -156 226
-92 46 -197 83 -224 80 -9 -1 -81 -5 -161 -9z m229 -99 c121 -34 175 -70 212
-142 20 -39 25 -93 10 -103 -5 -3 -51 3 -103 14 -209 43 -325 52 -398 31 -19
-6 -77 -13 -129 -17 l-94 -6 5 59 c3 34 15 81 29 109 l24 50 80 17 c102 23
259 17 364 -12z m-873 -119 c5 -6 41 -11 79 -13 l70 -3 3 -32 c2 -19 -1 -33
-7 -33 -7 0 -11 -43 -11 -122 0 -68 -5 -141 -10 -163 -5 -22 -10 -131 -10
-242 -1 -112 -6 -205 -11 -208 -5 -4 -9 -96 -9 -209 l0 -204 -37 -6 c-63 -11
-168 -21 -186 -18 -12 3 -17 21 -21 90 -3 48 -10 141 -16 207 -24 279 -49 918
-37 949 5 13 24 16 100 16 51 0 97 -4 103 -9z m3334 -95 c0 -14 5 -28 10 -31
6 -4 10 -60 10 -135 0 -71 4 -151 9 -177 18 -90 35 -360 47 -716 l7 -199 -129
6 c-71 3 -185 10 -254 16 -69 5 -167 12 -217 16 l-93 6 0 138 c0 164 -16 150
176 150 156 0 150 -5 153 139 l2 94 -120 -5 c-113 -5 -121 -4 -127 14 -8 26
-8 78 1 117 l7 31 76 2 c42 1 95 2 118 1 l40 -1 12 57 c7 32 12 108 12 169 l0
112 -150 0 -150 0 0 59 c0 66 1 67 95 82 28 5 79 13 115 19 36 6 94 15 130 20
144 20 192 28 197 34 13 13 23 5 23 -18z m-3880 -66 c0 -5 8 -10 18 -10 10 0
24 -9 32 -20 8 -11 21 -20 28 -20 8 0 27 -13 42 -30 15 -16 34 -30 42 -30 31
0 50 -59 55 -169 l5 -106 -37 -42 c-20 -24 -43 -43 -51 -43 -8 0 -14 -4 -14
-10 0 -5 -9 -10 -20 -10 -11 0 -20 -4 -20 -9 0 -5 -9 -11 -20 -14 -11 -3 -20
-12 -20 -21 0 -9 8 -16 20 -16 11 0 20 -4 20 -10 0 -5 9 -10 20 -10 11 0 20
-4 20 -10 0 -5 8 -10 18 -10 10 0 24 -9 32 -20 8 -11 20 -20 27 -20 30 0 43
-46 46 -161 2 -101 -1 -119 -20 -158 -13 -25 -23 -51 -23 -59 0 -26 -28 -42
-74 -42 -25 0 -46 -4 -46 -10 0 -13 -616 -14 -624 -1 -3 4 -23 11 -45 15 l-39
6 -7 113 c-4 62 -4 189 -1 282 3 94 9 264 12 379 6 194 7 209 25 213 10 3 19
9 19 13 0 10 89 19 250 26 63 3 119 9 123 13 13 13 207 14 207 1z m2822 0 c2
-5 20 -10 41 -12 20 -1 37 -6 37 -10 0 -4 11 -8 25 -8 14 0 33 -4 43 -9 9 -5
37 -15 62 -22 56 -17 80 -37 59 -50 -8 -5 -17 -9 -21 -9 -4 0 -23 -16 -42 -35
-20 -19 -39 -35 -44 -35 -5 0 -33 -22 -62 -50 -29 -27 -57 -50 -62 -50 -11 0
-234 -223 -247 -248 -15 -28 -14 -32 7 -32 10 0 24 -9 32 -20 8 -11 22 -20 32
-20 10 0 18 -4 18 -10 0 -5 9 -10 20 -10 11 0 20 -4 20 -10 0 -5 9 -10 20 -10
11 0 20 -4 20 -10 0 -5 9 -10 20 -10 11 0 20 -4 20 -10 0 -5 9 -10 20 -10 11
0 20 -4 20 -10 0 -5 9 -10 20 -10 11 0 20 -4 20 -10 0 -5 9 -10 20 -10 11 0
20 -4 20 -10 0 -5 9 -10 20 -10 11 0 20 -4 20 -10 0 -5 9 -10 20 -10 11 0 20
-4 20 -8 0 -5 23 -15 50 -22 28 -7 50 -17 50 -22 0 -4 9 -8 20 -8 11 0 20 -4
20 -9 0 -5 9 -11 20 -14 28 -7 29 -89 1 -113 -10 -9 -44 -41 -74 -70 -31 -30
-61 -54 -67 -54 -6 0 -22 -11 -35 -24 -21 -21 -32 -24 -71 -21 -30 2 -52 11
-63 24 -10 12 -25 21 -32 21 -8 0 -21 9 -29 20 -8 11 -19 20 -25 20 -12 0 -61
39 -135 106 -120 109 -227 168 -256 139 -8 -7 -14 -18 -14 -24 0 -6 -4 -11
-10 -11 -5 0 -10 -7 -10 -15 0 -8 -4 -15 -10 -15 -5 0 -10 -6 -10 -12 0 -7
-14 -29 -30 -48 -16 -19 -30 -41 -30 -47 0 -7 -4 -13 -10 -13 -5 0 -10 -7 -10
-16 0 -8 -7 -22 -15 -30 -8 -8 -18 -21 -23 -29 -6 -12 -19 -10 -77 14 -93 38
-184 85 -218 113 -25 21 -27 25 -15 50 7 16 16 28 21 28 4 0 7 5 7 11 0 6 14
24 30 39 17 15 30 33 30 38 0 5 23 33 50 61 28 28 50 57 50 64 0 7 9 19 20 27
11 8 20 20 20 28 0 15 -81 96 -138 139 -56 43 -142 129 -142 142 0 21 27 41
54 41 14 0 26 5 26 10 0 6 9 10 20 10 11 0 20 5 20 10 0 6 14 10 30 10 17 0
30 5 30 10 0 6 14 10 30 10 17 0 30 5 30 10 0 6 16 10 35 10 32 0 46 -10 125
-90 l90 -91 117 118 c65 65 138 134 163 153 25 19 52 41 60 50 47 49 122 78
132 50z m2744 -124 c8 -8 14 -20 14 -26 0 -6 11 -22 25 -35 24 -25 36 -31 34
-17 -1 4 -1 17 0 30 1 21 4 22 100 22 56 0 103 -4 106 -10 3 -5 28 -10 55 -10
60 0 100 -17 100 -42 0 -10 5 -18 10 -18 7 0 10 -143 10 -410 l0 -410 -170 0
c-107 0 -170 4 -170 10 0 6 -9 10 -20 10 -11 0 -20 -4 -20 -10 0 -15 -405 -13
-433 2 -12 6 -29 19 -38 30 -9 10 -21 18 -27 18 -13 0 -156 139 -170 167 -15
27 -15 93 -1 147 17 65 27 106 40 171 7 33 16 64 21 70 4 5 8 21 8 35 0 14 4
30 8 36 5 5 15 29 22 54 8 25 26 68 40 95 32 61 73 84 150 85 30 0 62 5 70 10
25 16 219 13 236 -4z m-3940 -40 c8 -8 14 -22 14 -30 0 -9 5 -16 10 -16 6 0
10 -9 10 -20 0 -11 5 -20 10 -20 6 0 10 -13 10 -30 0 -16 4 -30 8 -30 4 0 13
-21 20 -47 27 -98 36 -128 43 -138 3 -5 10 -28 13 -50 13 -76 25 -150 30 -185
9 -50 -21 -138 -56 -171 -10 -9 -18 -21 -18 -28 0 -6 -4 -11 -10 -11 -5 0 -10
-5 -10 -10 0 -16 -68 -80 -85 -80 -8 0 -15 -4 -15 -10 0 -13 -519 -13 -575 0
-22 5 -41 14 -43 19 -2 6 -10 11 -19 11 -8 0 -32 18 -53 40 -21 22 -42 40 -46
40 -16 0 -65 66 -73 100 -22 83 -35 194 -23 198 7 2 12 24 12 53 0 27 4 49 9
49 5 0 12 16 15 35 3 19 9 51 12 70 3 19 10 35 15 35 5 0 9 14 9 30 0 17 5 30
10 30 6 0 10 9 10 20 0 28 47 100 65 100 8 0 20 9 27 20 11 17 24 20 103 21
49 0 99 4 110 9 11 5 116 9 233 9 172 1 216 -2 228 -13z m2694 -86 c0 -13 7
-20 20 -20 11 0 20 5 20 10 0 6 9 10 20 10 11 0 20 5 20 10 0 6 76 10 208 10
l209 0 11 -25 c7 -14 12 -32 12 -40 0 -8 5 -15 11 -15 5 0 8 -4 5 -8 -3 -5 2
-21 10 -36 16 -31 18 -84 5 -104 -6 -10 -19 -12 -47 -6 -46 10 -444 12 -444 3
0 -4 -8 -9 -18 -11 -15 -4 -21 -20 -28 -79 -9 -81 -12 -398 -4 -494 l5 -60
-125 0 -125 0 -9 115 c-12 156 -13 523 -2 643 l9 97 81 1 c45 0 90 4 101 9 35
15 55 11 55 -10z"/>
<path d="M680 1321 c0 -33 -4 -63 -10 -66 -5 -3 -10 -40 -10 -81 l0 -74 54 0
c30 0 58 5 61 10 3 6 21 10 38 10 36 1 122 22 133 33 4 4 18 7 31 7 16 0 23 6
23 19 0 11 5 23 10 26 6 3 10 34 10 68 l0 63 -42 11 c-62 17 -178 33 -242 33
l-56 0 0 -59z"/>
<path d="M930 970 c-8 -5 -32 -10 -52 -10 -20 0 -40 -4 -43 -10 -3 -5 -26 -10
-51 -10 -24 0 -44 -4 -44 -10 0 -5 -18 -10 -40 -10 l-40 0 0 -126 c0 -95 3
-129 14 -140 11 -10 42 -14 123 -14 130 1 143 7 143 74 0 25 5 46 10 46 6 0
10 27 10 60 0 33 4 60 10 60 6 0 10 23 10 50 0 52 -14 63 -50 40z"/>
<path d="M6393 1187 c-49 -10 -53 -13 -53 -39 0 -15 -4 -28 -10 -28 -5 0 -10
-22 -10 -50 0 -27 -4 -50 -9 -50 -5 0 -12 -34 -15 -75 -3 -41 -9 -109 -12
-151 -4 -58 -2 -79 8 -85 7 -5 109 -9 226 -9 206 0 214 1 219 20 3 11 9 20 13
20 14 0 -2 222 -26 340 -8 39 -18 51 -61 73 -89 46 -160 55 -270 34z m147 -70
c32 -16 64 -102 80 -215 16 -112 16 -112 -119 -112 -58 0 -113 4 -120 9 -12 8
-14 29 -12 97 1 47 7 97 12 111 5 13 9 35 9 49 0 38 42 74 87 74 21 0 49 -6
63 -13z"/>
<path d="M2260 1190 c-14 -4 -44 -8 -68 -9 -56 -1 -72 -18 -72 -75 0 -25 -4
-46 -10 -46 -6 0 -10 -26 -10 -59 0 -33 -4 -63 -10 -66 -6 -4 -10 -53 -10
-114 0 -104 1 -109 23 -115 29 -8 385 -8 415 0 22 6 22 9 22 154 0 140 -6 195
-33 298 l-11 42 -106 -1 c-58 -1 -116 -5 -130 -9z m120 -85 c7 -8 16 -59 21
-112 4 -54 11 -114 14 -134 10 -52 -8 -65 -104 -72 -87 -7 -135 -1 -149 17
-12 16 4 188 23 245 9 30 24 52 38 59 34 17 142 15 157 -3z"/>
</g>
</svg>
